<svg version="1.1" viewBox="0.0 0.0 699.0 371.0" fill="none" stroke="none" stroke-linecap="square" stroke-miterlimit="10" width="699" height="371" xmlns:xlink="http://www.w3.org/1999/xlink" xmlns="http://www.w3.org/2000/svg"><path fill="#ffffff" d="M0 0L699.0 0L699.0 371.0L0 371.0L0 0Z" fill-rule="nonzero"/><path stroke="#cccccc" stroke-width="1.0" stroke-linecap="butt" d="M84.5 25.5L84.5 300.5" fill-rule="nonzero"/><path stroke="#cccccc" stroke-width="1.0" stroke-linecap="butt" d="M182.5 25.5L182.5 300.5" fill-rule="nonzero"/><path stroke="#cccccc" stroke-width="1.0" stroke-linecap="butt" d="M284.5 25.5L284.5 300.5" fill-rule="nonzero"/><path stroke="#cccccc" stroke-width="1.0" stroke-linecap="butt" d="M385.5 25.5L385.5 300.5" fill-rule="nonzero"/><path stroke="#cccccc" stroke-width="1.0" stroke-linecap="butt" d="M489.5 25.5L489.5 300.5" fill-rule="nonzero"/><path stroke="#cccccc" stroke-width="1.0" stroke-linecap="butt" d="M590.5 25.5L590.5 300.5" fill-rule="nonzero"/><path stroke="#e6e6e6" stroke-width="1.0" stroke-linecap="butt" d="M133.5 25.5L133.5 300.5" fill-rule="nonzero"/><path stroke="#e6e6e6" stroke-width="1.0" stroke-linecap="butt" d="M233.5 25.5L233.5 300.5" fill-rule="nonzero"/><path stroke="#e6e6e6" stroke-width="1.0" stroke-linecap="butt" d="M335.5 25.5L335.5 300.5" fill-rule="nonzero"/><path stroke="#e6e6e6" stroke-width="1.0" stroke-linecap="butt" d="M437.5 25.5L437.5 300.5" fill-rule="nonzero"/><path stroke="#e6e6e6" stroke-width="1.0" stroke-linecap="butt" d="M539.5 25.5L539.5 300.5" fill-rule="nonzero"/><path stroke="#e6e6e6" stroke-width="1.0" stroke-linecap="butt" d="M641.5 25.5L641.5 300.5" fill-rule="nonzero"/><path stroke="#cccccc" stroke-width="1.0" stroke-linecap="butt" d="M84.5 300.5L680.5 300.5" fill-rule="nonzero"/><path stroke="#cccccc" stroke-width="1.0" stroke-linecap="butt" d="M84.5 231.5L680.5 231.5" fill-rule="nonzero"/><path stroke="#cccccc" stroke-width="1.0" stroke-linecap="butt" d="M84.5 162.5L680.5 162.5" fill-rule="nonzero"/><path stroke="#cccccc" stroke-width="1.0" stroke-linecap="butt" d="M84.5 94.5L680.5 94.5" fill-rule="nonzero"/><path stroke="#cccccc" stroke-width="1.0" stroke-linecap="butt" d="M84.5 25.5L680.5 25.5" fill-rule="nonzero"/><path stroke="#e6e6e6" stroke-width="1.0" stroke-linecap="butt" d="M84.5 286.5L680.5 286.5" fill-rule="nonzero"/><path stroke="#e6e6e6" stroke-width="1.0" stroke-linecap="butt" d="M84.5 272.5L680.5 272.5" fill-rule="nonzero"/><path stroke="#e6e6e6" stroke-width="1.0" stroke-linecap="butt" d="M84.5 259.5L680.5 259.5" fill-rule="nonzero"/><path stroke="#e6e6e6" stroke-width="1.0" stroke-linecap="butt" d="M84.5 245.5L680.5 245.5" fill-rule="nonzero"/><path stroke="#e6e6e6" stroke-width="1.0" stroke-linecap="butt" d="M84.5 217.5L680.5 217.5" fill-rule="nonzero"/><path stroke="#e6e6e6" stroke-width="1.0" stroke-linecap="butt" d="M84.5 204.5L680.5 204.5" fill-rule="nonzero"/><path stroke="#e6e6e6" stroke-width="1.0" stroke-linecap="butt" d="M84.5 190.5L680.5 190.5" fill-rule="nonzero"/><path stroke="#e6e6e6" stroke-width="1.0" stroke-linecap="butt" d="M84.5 176.5L680.5 176.5" fill-rule="nonzero"/><path stroke="#e6e6e6" stroke-width="1.0" stroke-linecap="butt" d="M84.5 149.5L680.5 149.5" fill-rule="nonzero"/><path stroke="#e6e6e6" stroke-width="1.0" stroke-linecap="butt" d="M84.5 135.5L680.5 135.5" fill-rule="nonzero"/><path stroke="#e6e6e6" stroke-width="1.0" stroke-linecap="butt" d="M84.5 121.5L680.5 121.5" fill-rule="nonzero"/><path stroke="#e6e6e6" stroke-width="1.0" stroke-linecap="butt" d="M84.5 108.5L680.5 108.5" fill-rule="nonzero"/><path stroke="#e6e6e6" stroke-width="1.0" stroke-linecap="butt" d="M84.5 80.5L680.5 80.5" fill-rule="nonzero"/><path stroke="#e6e6e6" stroke-width="1.0" stroke-linecap="butt" d="M84.5 66.5L680.5 66.5" fill-rule="nonzero"/><path stroke="#e6e6e6" stroke-width="1.0" stroke-linecap="butt" d="M84.5 53.5L680.5 53.5" fill-rule="nonzero"/><path stroke="#e6e6e6" stroke-width="1.0" stroke-linecap="butt" d="M84.5 39.5L680.5 39.5" fill-rule="nonzero"/><clipPath id="id_0"><path d="M84.55 25.55L680.45 25.55L680.45 300.45L84.55 300.45L84.55 25.55Z" clip-rule="nonzero"/></clipPath><path fill="#4285f4" fill-opacity="0.3019608" clip-path="url(#id_0)" d="M84.55 286.705L99.53072 272.96L99.53072 259.215L101.19525 245.47L111.1824 231.725L134.48575 217.98L136.15028 204.235L151.13101 190.49L211.05391 176.745L234.35727 163.0L275.9704 149.255L277.63492 135.51L277.63492 121.765L345.88043 108.02L379.17096 94.275L407.46786 80.53L505.67487 66.785L567.26227 53.04L600.5528 39.295L680.45 25.55L680.45 369.175L600.5528 369.175L567.26227 369.175L505.67487 369.175L407.46786 369.175L379.17096 369.175L345.88043 369.175L277.63492 369.175L277.63492 369.175L275.9704 369.175L234.35727 369.175L211.05391 369.175L151.13101 369.175L136.15028 369.175L134.48575 369.175L111.1824 369.175L101.19525 369.175L99.53072 369.175L99.53072 369.175L84.55 369.175Z" fill-rule="nonzero"/><path stroke="#4285f4" stroke-width="2.0" stroke-linecap="butt" clip-path="url(#id_0)" d="M84.55 286.705L99.53072 272.96L99.53072 259.215L101.19525 245.47L111.1824 231.725L134.48575 217.98L136.15028 204.235L151.13101 190.49L211.05391 176.745L234.35727 163.0L275.9704 149.255L277.63492 135.51L277.63492 121.765L345.88043 108.02L379.17096 94.275L407.46786 80.53L505.67487 66.785L567.26227 53.04L600.5528 39.295L680.45 25.55" fill-rule="nonzero"/><path fill="#4285f4" clip-path="url(#id_0)" d="M90.55 286.705C90.55 290.0187 87.86371 292.705 84.55 292.705C81.23629 292.705 78.55 290.0187 78.55 286.705C78.55 283.3913 81.23629 280.705 84.55 280.705C87.86371 280.705 90.55 283.3913 90.55 286.705Z" fill-rule="nonzero"/><path fill="#4285f4" clip-path="url(#id_0)" d="M105.53072 272.96C105.53072 276.2737 102.84444 278.96 99.53072 278.96C96.21702 278.96 93.53072 276.2737 93.53072 272.96C93.53072 269.6463 96.21702 266.96 99.53072 266.96C102.84444 266.96 105.53072 269.6463 105.53072 272.96Z" fill-rule="nonzero"/><path fill="#4285f4" clip-path="url(#id_0)" d="M105.53072 259.215C105.53072 262.52872 102.84444 265.215 99.53072 265.215C96.21702 265.215 93.53072 262.52872 93.53072 259.215C93.53072 255.90129 96.21702 253.215 99.53072 253.215C102.84444 253.215 105.53072 255.90129 105.53072 259.215Z" fill-rule="nonzero"/><path fill="#4285f4" clip-path="url(#id_0)" d="M107.19525 245.47C107.19525 248.7837 104.50896 251.47 101.19525 251.47C97.881546 251.47 95.19525 248.7837 95.19525 245.47C95.19525 242.1563 97.881546 239.47 101.19525 239.47C104.50896 239.47 107.19525 242.1563 107.19525 245.47Z" fill-rule="nonzero"/><path fill="#4285f4" clip-path="url(#id_0)" d="M117.1824 231.725C117.1824 235.03871 114.49611 237.725 111.1824 237.725C107.86869 237.725 105.1824 235.03871 105.1824 231.725C105.1824 228.41129 107.86869 225.725 111.1824 225.725C114.49611 225.725 117.1824 228.41129 117.1824 231.725Z" fill-rule="nonzero"/><path fill="#4285f4" clip-path="url(#id_0)" d="M140.48575 217.98C140.48575 221.2937 137.79947 223.98 134.48575 223.98C131.17204 223.98 128.48575 221.2937 128.48575 217.98C128.48575 214.66629 131.17204 211.98 134.48575 211.98C137.79947 211.98 140.48575 214.66629 140.48575 217.98Z" fill-rule="nonzero"/><path fill="#4285f4" clip-path="url(#id_0)" d="M142.15028 204.235C142.15028 207.5487 139.46399 210.235 136.15028 210.235C132.83658 210.235 130.15028 207.5487 130.15028 204.235C130.15028 200.9213 132.83658 198.235 136.15028 198.235C139.46399 198.235 142.15028 200.9213 142.15028 204.235Z" fill-rule="nonzero"/><path fill="#4285f4" clip-path="url(#id_0)" d="M157.13101 190.49C157.13101 193.80371 154.44472 196.49 151.13101 196.49C147.81729 196.49 145.13101 193.80371 145.13101 190.49C145.13101 187.17628 147.81729 184.49 151.13101 184.49C154.44472 184.49 157.13101 187.17628 157.13101 190.49Z" fill-rule="nonzero"/><path fill="#4285f4" clip-path="url(#id_0)" d="M217.05391 176.745C217.05391 180.05872 214.36761 182.745 211.05391 182.745C207.7402 182.745 205.05391 180.05872 205.05391 176.745C205.05391 173.43129 207.7402 170.745 211.05391 170.745C214.36761 170.745 217.05391 173.43129 217.05391 176.745Z" fill-rule="nonzero"/><path fill="#4285f4" clip-path="url(#id_0)" d="M240.35727 163.0C240.35727 166.3137 237.67097 169.0 234.35727 169.0C231.04355 169.0 228.35727 166.3137 228.35727 163.0C228.35727 159.6863 231.04355 157.0 234.35727 157.0C237.67097 157.0 240.35727 159.6863 240.35727 163.0Z" fill-rule="nonzero"/><path fill="#4285f4" clip-path="url(#id_0)" d="M281.9704 149.255C281.9704 152.56871 279.2841 155.255 275.9704 155.255C272.65668 155.255 269.9704 152.56871 269.9704 149.255C269.9704 145.94128 272.65668 143.255 275.9704 143.255C279.2841 143.255 281.9704 145.94128 281.9704 149.255Z" fill-rule="nonzero"/><path fill="#4285f4" clip-path="url(#id_0)" d="M283.63492 135.51C283.63492 138.82372 280.94864 141.51 277.63492 141.51C274.3212 141.51 271.63492 138.82372 271.63492 135.51C271.63492 132.19629 274.3212 129.51 277.63492 129.51C280.94864 129.51 283.63492 132.19629 283.63492 135.51Z" fill-rule="nonzero"/><path fill="#4285f4" clip-path="url(#id_0)" d="M283.63492 121.765C283.63492 125.078705 280.94864 127.765 277.63492 127.765C274.3212 127.765 271.63492 125.078705 271.63492 121.765C271.63492 118.451294 274.3212 115.765 277.63492 115.765C280.94864 115.765 283.63492 118.451294 283.63492 121.765Z" fill-rule="nonzero"/><path fill="#4285f4" clip-path="url(#id_0)" d="M351.88043 108.02C351.88043 111.33371 349.19415 114.02 345.88043 114.02C342.56674 114.02 339.88043 111.33371 339.88043 108.02C339.88043 104.70629 342.56674 102.02 345.88043 102.02C349.19415 102.02 351.88043 104.70629 351.88043 108.02Z" fill-rule="nonzero"/><path fill="#4285f4" clip-path="url(#id_0)" d="M385.17096 94.275C385.17096 97.58871 382.48465 100.275 379.17096 100.275C375.85724 100.275 373.17096 97.58871 373.17096 94.275C373.17096 90.96129 375.85724 88.275 379.17096 88.275C382.48465 88.275 385.17096 90.96129 385.17096 94.275Z" fill-rule="nonzero"/><path fill="#4285f4" clip-path="url(#id_0)" d="M413.46786 80.53C413.46786 83.84371 410.7816 86.53 407.46786 86.53C404.15417 86.53 401.46786 83.84371 401.46786 80.53C401.46786 77.21629 404.15417 74.53 407.46786 74.53C410.7816 74.53 413.46786 77.21629 413.46786 80.53Z" fill-rule="nonzero"/><path fill="#4285f4" clip-path="url(#id_0)" d="M511.67487 66.785C511.67487 70.09871 508.98856 72.785 505.67487 72.785C502.36115 72.785 499.67487 70.09871 499.67487 66.785C499.67487 63.47129 502.36115 60.785 505.67487 60.785C508.98856 60.785 511.67487 63.47129 511.67487 66.785Z" fill-rule="nonzero"/><path fill="#4285f4" clip-path="url(#id_0)" d="M573.26227 53.04C573.26227 56.35371 570.576 59.04 567.26227 59.04C563.9486 59.04 561.26227 56.35371 561.26227 53.04C561.26227 49.72629 563.9486 47.04 567.26227 47.04C570.576 47.04 573.26227 49.72629 573.26227 53.04Z" fill-rule="nonzero"/><path fill="#4285f4" clip-path="url(#id_0)" d="M606.5528 39.295C606.5528 42.608707 603.8665 45.295 600.5528 45.295C597.2391 45.295 594.5528 42.608707 594.5528 39.295C594.5528 35.981293 597.2391 33.295 600.5528 33.295C603.8665 33.295 606.5528 35.981293 606.5528 39.295Z" fill-rule="nonzero"/><path fill="#4285f4" clip-path="url(#id_0)" d="M686.45 25.55C686.45 28.863708 683.76373 31.55 680.45 31.55C677.1363 31.55 674.45 28.863708 674.45 25.55C674.45 22.236292 677.1363 19.55 680.45 19.55C683.76373 19.55 686.45 22.236292 686.45 25.55Z" fill-rule="nonzero"/><path fill="#000000" d="M370.42188 349.45L370.42188 340.85626L373.39062 340.85626Q374.39062 340.85626 374.92188 340.98126Q375.65625 341.15314 376.17188 341.59064Q376.85938 342.16876 377.1875 343.075Q377.53125 343.96564 377.53125 345.10626Q377.53125 346.09064 377.29688 346.84064Q377.07812 347.59064 376.71875 348.09064Q376.35938 348.59064 375.92188 348.8719Q375.5 349.15314 374.90625 349.3094Q374.3125 349.45 373.53125 349.45L370.42188 349.45ZM371.5625 348.4344L373.39062 348.4344Q374.25 348.4344 374.73438 348.27814Q375.21875 348.1219 375.5 347.825Q375.90625 347.4344 376.125 346.7469Q376.35938 346.0594 376.35938 345.09064Q376.35938 343.7469 375.90625 343.02814Q375.46875 342.29376 374.84375 342.04376Q374.375 341.8719 373.375 341.8719L371.5625 341.8719L371.5625 348.4344ZM383.35938 348.6844Q382.76562 349.1844 382.21875 349.3875Q381.6875 349.59064 381.0625 349.59064Q380.03125 349.59064 379.48438 349.09064Q378.9375 348.59064 378.9375 347.8094Q378.9375 347.35626 379.14062 346.98126Q379.34375 346.59064 379.6875 346.3719Q380.03125 346.1375 380.45312 346.02814Q380.75 345.9344 381.39062 345.85626Q382.65625 345.71564 383.26562 345.4969Q383.26562 345.27814 383.26562 345.23126Q383.26562 344.575 382.96875 344.3094Q382.5625 343.96564 381.76562 343.96564Q381.03125 343.96564 380.67188 344.23126Q380.3125 344.48126 380.14062 345.1375L379.10938 344.9969Q379.25 344.34064 379.57812 343.9344Q379.90625 343.52814 380.51562 343.3094Q381.125 343.09064 381.92188 343.09064Q382.71875 343.09064 383.21875 343.27814Q383.71875 343.46564 383.95312 343.7469Q384.1875 344.02814 384.28125 344.46564Q384.32812 344.73126 384.32812 345.4344L384.32812 346.84064Q384.32812 348.3094 384.39062 348.7Q384.46875 349.09064 384.67188 349.45L383.5625 349.45Q383.40625 349.1219 383.35938 348.6844ZM383.26562 346.325Q382.6875 346.5594 381.54688 346.73126Q380.89062 346.825 380.625 346.95Q380.35938 347.0594 380.20312 347.27814Q380.0625 347.4969 380.0625 347.77814Q380.0625 348.2 380.375 348.48126Q380.70312 348.7625 381.3125 348.7625Q381.92188 348.7625 382.39062 348.4969Q382.875 348.23126 383.09375 347.7625Q383.26562 347.40314 383.26562 346.71564L383.26562 346.325ZM388.59375 348.5125L388.75 349.4344Q388.29688 349.52814 387.95312 349.52814Q387.375 349.52814 387.0625 349.35626Q386.75 349.16876 386.60938 348.8719Q386.48438 348.575 386.48438 347.6219L386.48438 344.04376L385.71875 344.04376L385.71875 343.23126L386.48438 343.23126L386.48438 341.6844L387.53125 341.0594L387.53125 343.23126L388.59375 343.23126L388.59375 344.04376L387.53125 344.04376L387.53125 347.6844Q387.53125 348.1375 387.57812 348.2625Q387.64062 348.3875 387.76562 348.46564Q387.89062 348.54376 388.125 348.54376Q388.3125 348.54376 388.59375 348.5125ZM393.54688 347.45L394.64062 347.575Q394.39062 348.52814 393.6875 349.0594Q392.98438 349.59064 391.90625 349.59064Q390.54688 349.59064 389.73438 348.7469Q388.9375 347.90314 388.9375 346.3875Q388.9375 344.825 389.75 343.96564Q390.5625 343.09064 391.84375 343.09064Q393.09375 343.09064 393.875 343.9344Q394.67188 344.77814 394.67188 346.325Q394.67188 346.41876 394.67188 346.60626L390.03125 346.60626Q390.09375 347.6375 390.60938 348.1844Q391.125 348.71564 391.90625 348.71564Q392.48438 348.71564 392.89062 348.41876Q393.3125 348.10626 393.54688 347.45ZM390.09375 345.7469L393.5625 345.7469Q393.5 344.95 393.17188 344.5594Q392.65625 343.95 391.85938 343.95Q391.125 343.95 390.625 344.4344Q390.14062 344.91876 390.09375 345.7469Z" fill-rule="nonzero"/><path fill="#000000" d="M29.550013 195.51562L20.956263 195.51562L20.956263 189.71875L21.971888 189.71875L21.971888 194.375L24.628138 194.375L24.628138 190.34375L25.643763 190.34375L25.643763 194.375L29.550013 194.375L29.550013 195.51562ZM26.440638 189.09375Q24.706263 189.09375 23.878138 188.14062Q23.190638 187.34375 23.190638 186.1875Q23.190638 184.90625 24.034388 184.09375Q24.862513 183.26562 26.346888 183.26562Q27.550013 183.26562 28.237513 183.625Q28.925013 183.98438 29.315638 184.6875Q29.690638 185.375 29.690638 186.1875Q29.690638 187.48438 28.862513 188.29688Q28.018763 189.09375 26.440638 189.09375ZM26.440638 188.01562Q27.628138 188.01562 28.221888 187.5Q28.815638 186.96875 28.815638 186.1875Q28.815638 185.39062 28.221888 184.875Q27.628138 184.35938 26.409388 184.35938Q25.253138 184.35938 24.659388 184.89062Q24.065638 185.40625 24.065638 186.1875Q24.065638 186.96875 24.659388 187.5Q25.237513 188.01562 26.440638 188.01562ZM29.550013 181.73438L20.956263 181.73438L20.956263 180.67188L29.550013 180.67188L29.550013 181.73438ZM29.550013 178.73438L20.956263 178.73438L20.956263 177.67188L29.550013 177.67188L29.550013 178.73438ZM26.440638 176.09375Q24.706263 176.09375 23.878138 175.14062Q23.190638 174.34375 23.190638 173.1875Q23.190638 171.90625 24.034388 171.09375Q24.862513 170.26562 26.346888 170.26562Q27.550013 170.26562 28.237513 170.625Q28.925013 170.98438 29.315638 171.6875Q29.690638 172.375 29.690638 173.1875Q29.690638 174.48438 28.862513 175.29688Q28.018763 176.09375 26.440638 176.09375ZM26.440638 175.01562Q27.628138 175.01562 28.221888 174.5Q28.815638 173.96875 28.815638 173.1875Q28.815638 172.39062 28.221888 171.875Q27.628138 171.35938 26.409388 171.35938Q25.253138 171.35938 24.659388 171.89062Q24.065638 172.40625 24.065638 173.1875Q24.065638 173.96875 24.659388 174.5Q25.237513 175.01562 26.440638 175.01562ZM29.550013 167.5625L23.331263 169.46875L23.331263 168.375L26.925013 167.39062L28.253138 167.01562Q28.159388 166.98438 26.971888 166.6875L23.331263 165.70312L23.331263 164.625L26.940638 163.6875L28.128138 163.375L26.925013 163.01562L23.331263 161.95312L23.331263 160.92188L29.550013 162.875L29.550013 163.96875L25.815638 164.95312L24.768763 165.20312L29.550013 166.45312L29.550013 167.5625ZM27.550013 155.45312L27.675013 154.35938Q28.628138 154.60938 29.159388 155.3125Q29.690638 156.01562 29.690638 157.09375Q29.690638 158.45312 28.846888 159.26562Q28.003138 160.0625 26.487513 160.0625Q24.925013 160.0625 24.065638 159.25Q23.190638 158.4375 23.190638 157.15625Q23.190638 155.90625 24.034388 155.125Q24.878138 154.32812 26.425013 154.32812Q26.518763 154.32812 26.706263 154.32812L26.706263 158.96875Q27.737513 158.90625 28.284388 158.39062Q28.815638 157.875 28.815638 157.09375Q28.815638 156.51562 28.518763 156.10938Q28.206263 155.6875 27.550013 155.45312ZM25.846888 158.90625L25.846888 155.4375Q25.050013 155.5 24.659388 155.82812Q24.050013 156.34375 24.050013 157.14062Q24.050013 157.875 24.534388 158.375Q25.018763 158.85938 25.846888 158.90625ZM29.550013 152.71875L23.331263 152.71875L23.331263 151.76562L24.268763 151.76562Q23.612513 151.40625 23.409388 151.10938Q23.190638 150.79688 23.190638 150.42188Q23.190638 149.89062 23.518763 149.34375L24.503138 149.70312Q24.268763 150.09375 24.268763 150.46875Q24.268763 150.82812 24.487513 151.10938Q24.690638 151.375 25.065638 151.48438Q25.628138 151.67188 26.284388 151.67188L29.550013 151.67188L29.550013 152.71875ZM27.690638 149.125L27.534388 148.09375Q28.159388 148.0 28.487513 147.60938Q28.815638 147.20312 28.815638 146.46875Q28.815638 145.75 28.534388 145.40625Q28.237513 145.04688 27.831263 145.04688Q27.471888 145.04688 27.268763 145.35938Q27.128138 145.57812 26.909388 146.4375Q26.612513 147.59375 26.409388 148.04688Q26.190638 148.48438 25.815638 148.71875Q25.440638 148.95312 24.971888 148.95312Q24.565638 148.95312 24.206263 148.76562Q23.846888 148.57812 23.612513 148.25Q23.440638 148.0 23.315638 147.57812Q23.190638 147.15625 23.190638 146.65625Q23.190638 145.9375 23.409388 145.39062Q23.612513 144.82812 23.971888 144.5625Q24.331263 144.29688 24.925013 144.20312L25.065638 145.23438Q24.596888 145.29688 24.331263 145.64062Q24.050013 145.96875 24.050013 146.59375Q24.050013 147.3125 24.300013 147.625Q24.534388 147.9375 24.862513 147.9375Q25.065638 147.9375 25.221888 147.8125Q25.393763 147.67188 25.503138 147.40625Q25.565638 147.25 25.768763 146.46875Q26.081263 145.34375 26.268763 144.90625Q26.456263 144.46875 26.815638 144.21875Q27.175013 143.96875 27.721888 143.96875Q28.253138 143.96875 28.721888 144.28125Q29.175013 144.57812 29.440638 145.15625Q29.690638 145.73438 29.690638 146.46875Q29.690638 147.6875 29.190638 148.32812Q28.675013 148.95312 27.690638 149.125Z" fill-rule="nonzero"/><path fill="#000000" d="M58.05 302.2L59.159374 302.10626Q59.284374 302.91876 59.721874 303.325Q60.175 303.73126 60.815624 303.73126Q61.565624 303.73126 62.096874 303.15314Q62.628124 302.575 62.628124 301.6375Q62.628124 300.73126 62.1125 300.21564Q61.6125 299.6844 60.784374 299.6844Q60.284374 299.6844 59.8625 299.91876Q59.45625 300.15314 59.221874 300.5125L58.2375 300.3875L59.065624 295.98126L63.346874 295.98126L63.346874 296.98126L59.909374 296.98126L59.45625 299.29376Q60.221874 298.7469 61.065624 298.7469Q62.190624 298.7469 62.95625 299.52814Q63.7375 300.3094 63.7375 301.54376Q63.7375 302.7 63.065624 303.5594Q62.2375 304.59064 60.815624 304.59064Q59.64375 304.59064 58.89375 303.9344Q58.159374 303.27814 58.05 302.2ZM65.05 300.21564Q65.05 298.6844 65.3625 297.7625Q65.675 296.825 66.28438 296.325Q66.90938 295.825 67.84688 295.825Q68.53438 295.825 69.05 296.10626Q69.58125 296.3875 69.925 296.91876Q70.26875 297.4344 70.45625 298.1844Q70.64375 298.9344 70.64375 300.21564Q70.64375 301.73126 70.33125 302.65314Q70.03438 303.575 69.40938 304.09064Q68.8 304.59064 67.84688 304.59064Q66.6125 304.59064 65.89375 303.7Q65.05 302.6375 65.05 300.21564ZM66.12813 300.21564Q66.12813 302.325 66.62813 303.02814Q67.12813 303.73126 67.84688 303.73126Q68.58125 303.73126 69.06563 303.02814Q69.56563 302.325 69.56563 300.21564Q69.56563 298.09064 69.06563 297.40314Q68.58125 296.7 67.83125 296.7Q67.1125 296.7 66.675 297.3094Q66.12813 298.09064 66.12813 300.21564ZM72.05 300.21564Q72.05 298.6844 72.3625 297.7625Q72.675 296.825 73.28438 296.325Q73.90938 295.825 74.84688 295.825Q75.53438 295.825 76.05 296.10626Q76.58125 296.3875 76.925 296.91876Q77.26875 297.4344 77.45625 298.1844Q77.64375 298.9344 77.64375 300.21564Q77.64375 301.73126 77.33125 302.65314Q77.03438 303.575 76.40938 304.09064Q75.8 304.59064 74.84688 304.59064Q73.6125 304.59064 72.89375 303.7Q72.05 302.6375 72.05 300.21564ZM73.12813 300.21564Q73.12813 302.325 73.62813 303.02814Q74.12813 303.73126 74.84688 303.73126Q75.58125 303.73126 76.06563 303.02814Q76.56563 302.325 76.56563 300.21564Q76.56563 298.09064 76.06563 297.40314Q75.58125 296.7 74.83125 296.7Q74.1125 296.7 73.675 297.3094Q73.12813 298.09064 73.12813 300.21564Z" fill-rule="nonzero"/><path fill="#000000" d="M55.01875 235.725L53.971874 235.725L53.971874 229.00626Q53.58125 229.36563 52.95625 229.74063Q52.346874 230.1 51.8625 230.27188L51.8625 229.25626Q52.7375 228.83438 53.39375 228.25626Q54.065624 227.6625 54.346874 227.1L55.01875 227.1L55.01875 235.725ZM58.05 231.49063Q58.05 229.95938 58.3625 229.0375Q58.675 228.1 59.284374 227.6Q59.909374 227.1 60.846874 227.1Q61.534374 227.1 62.05 227.38126Q62.58125 227.6625 62.925 228.19376Q63.26875 228.70938 63.45625 229.45938Q63.64375 230.20938 63.64375 231.49063Q63.64375 233.00626 63.33125 233.92813Q63.034374 234.85 62.409374 235.36563Q61.8 235.86563 60.846874 235.86563Q59.6125 235.86563 58.89375 234.975Q58.05 233.9125 58.05 231.49063ZM59.128124 231.49063Q59.128124 233.6 59.628124 234.30313Q60.128124 235.00626 60.846874 235.00626Q61.58125 235.00626 62.065624 234.30313Q62.565624 233.6 62.565624 231.49063Q62.565624 229.36563 62.065624 228.67813Q61.58125 227.975 60.83125 227.975Q60.1125 227.975 59.675 228.58438Q59.128124 229.36563 59.128124 231.49063ZM65.05 231.49063Q65.05 229.95938 65.3625 229.0375Q65.675 228.1 66.28438 227.6Q66.90938 227.1 67.84688 227.1Q68.53438 227.1 69.05 227.38126Q69.58125 227.6625 69.925 228.19376Q70.26875 228.70938 70.45625 229.45938Q70.64375 230.20938 70.64375 231.49063Q70.64375 233.00626 70.33125 233.92813Q70.03438 234.85 69.40938 235.36563Q68.8 235.86563 67.84688 235.86563Q66.6125 235.86563 65.89375 234.975Q65.05 233.9125 65.05 231.49063ZM66.12813 231.49063Q66.12813 233.6 66.62813 234.30313Q67.12813 235.00626 67.84688 235.00626Q68.58125 235.00626 69.06563 234.30313Q69.56563 233.6 69.56563 231.49063Q69.56563 229.36563 69.06563 228.67813Q68.58125 227.975 67.83125 227.975Q67.1125 227.975 66.675 228.58438Q66.12813 229.36563 66.12813 231.49063ZM72.05 231.49063Q72.05 229.95938 72.3625 229.0375Q72.675 228.1 73.28438 227.6Q73.90938 227.1 74.84688 227.1Q75.53438 227.1 76.05 227.38126Q76.58125 227.6625 76.925 228.19376Q77.26875 228.70938 77.45625 229.45938Q77.64375 230.20938 77.64375 231.49063Q77.64375 233.00626 77.33125 233.92813Q77.03438 234.85 76.40938 235.36563Q75.8 235.86563 74.84688 235.86563Q73.6125 235.86563 72.89375 234.975Q72.05 233.9125 72.05 231.49063ZM73.12813 231.49063Q73.12813 233.6 73.62813 234.30313Q74.12813 235.00626 74.84688 235.00626Q75.58125 235.00626 76.06563 234.30313Q76.56563 233.6 76.56563 231.49063Q76.56563 229.36563 76.06563 228.67813Q75.58125 227.975 74.83125 227.975Q74.1125 227.975 73.675 228.58438Q73.12813 229.36563 73.12813 231.49063Z" fill-rule="nonzero"/><path fill="#000000" d="M55.01875 167.0L53.971874 167.0L53.971874 160.28125Q53.58125 160.64062 52.95625 161.01562Q52.346874 161.375 51.8625 161.54688L51.8625 160.53125Q52.7375 160.10938 53.39375 159.53125Q54.065624 158.9375 54.346874 158.375L55.01875 158.375L55.01875 167.0ZM58.05 164.75L59.159374 164.65625Q59.284374 165.46875 59.721874 165.875Q60.175 166.28125 60.815624 166.28125Q61.565624 166.28125 62.096874 165.70312Q62.628124 165.125 62.628124 164.1875Q62.628124 163.28125 62.1125 162.76562Q61.6125 162.23438 60.784374 162.23438Q60.284374 162.23438 59.8625 162.46875Q59.45625 162.70312 59.221874 163.0625L58.2375 162.9375L59.065624 158.53125L63.346874 158.53125L63.346874 159.53125L59.909374 159.53125L59.45625 161.84375Q60.221874 161.29688 61.065624 161.29688Q62.190624 161.29688 62.95625 162.07812Q63.7375 162.85938 63.7375 164.09375Q63.7375 165.25 63.065624 166.10938Q62.2375 167.14062 60.815624 167.14062Q59.64375 167.14062 58.89375 166.48438Q58.159374 165.82812 58.05 164.75ZM65.05 162.76562Q65.05 161.23438 65.3625 160.3125Q65.675 159.375 66.28438 158.875Q66.90938 158.375 67.84688 158.375Q68.53438 158.375 69.05 158.65625Q69.58125 158.9375 69.925 159.46875Q70.26875 159.98438 70.45625 160.73438Q70.64375 161.48438 70.64375 162.76562Q70.64375 164.28125 70.33125 165.20312Q70.03438 166.125 69.40938 166.64062Q68.8 167.14062 67.84688 167.14062Q66.6125 167.14062 65.89375 166.25Q65.05 165.1875 65.05 162.76562ZM66.12813 162.76562Q66.12813 164.875 66.62813 165.57812Q67.12813 166.28125 67.84688 166.28125Q68.58125 166.28125 69.06563 165.57812Q69.56563 164.875 69.56563 162.76562Q69.56563 160.64062 69.06563 159.95312Q68.58125 159.25 67.83125 159.25Q67.1125 159.25 66.675 159.85938Q66.12813 160.64062 66.12813 162.76562ZM72.05 162.76562Q72.05 161.23438 72.3625 160.3125Q72.675 159.375 73.28438 158.875Q73.90938 158.375 74.84688 158.375Q75.53438 158.375 76.05 158.65625Q76.58125 158.9375 76.925 159.46875Q77.26875 159.98438 77.45625 160.73438Q77.64375 161.48438 77.64375 162.76562Q77.64375 164.28125 77.33125 165.20312Q77.03438 166.125 76.40938 166.64062Q75.8 167.14062 74.84688 167.14062Q73.6125 167.14062 72.89375 166.25Q72.05 165.1875 72.05 162.76562ZM73.12813 162.76562Q73.12813 164.875 73.62813 165.57812Q74.12813 166.28125 74.84688 166.28125Q75.58125 166.28125 76.06563 165.57812Q76.56563 164.875 76.56563 162.76562Q76.56563 160.64062 76.06563 159.95312Q75.58125 159.25 74.83125 159.25Q74.1125 159.25 73.675 159.85938Q73.12813 160.64062 73.12813 162.76562Z" fill-rule="nonzero"/><path fill="#000000" d="M56.596874 97.25938L56.596874 98.275L50.909374 98.275Q50.909374 97.9 51.034374 97.54063Q51.253124 96.9625 51.721874 96.4Q52.20625 95.8375 53.1125 95.10313Q54.51875 93.94688 55.003124 93.275Q55.503124 92.60313 55.503124 92.00938Q55.503124 91.38438 55.05 90.9625Q54.596874 90.525 53.878124 90.525Q53.1125 90.525 52.659374 90.97813Q52.20625 91.43125 52.190624 92.24375L51.1125 92.13438Q51.221874 90.91563 51.940624 90.29063Q52.675 89.65 53.909374 89.65Q55.14375 89.65 55.8625 90.3375Q56.58125 91.025 56.58125 92.04063Q56.58125 92.55625 56.3625 93.05625Q56.159374 93.54063 55.659374 94.10313Q55.175 94.65 54.05 95.60313Q53.096874 96.4 52.815624 96.69688Q52.55 96.97813 52.378124 97.25938L56.596874 97.25938ZM58.05 94.04063Q58.05 92.50938 58.3625 91.5875Q58.675 90.65 59.284374 90.15Q59.909374 89.65 60.846874 89.65Q61.534374 89.65 62.05 89.93125Q62.58125 90.2125 62.925 90.74375Q63.26875 91.25938 63.45625 92.00938Q63.64375 92.75938 63.64375 94.04063Q63.64375 95.55625 63.33125 96.47813Q63.034374 97.4 62.409374 97.91563Q61.8 98.41563 60.846874 98.41563Q59.6125 98.41563 58.89375 97.525Q58.05 96.4625 58.05 94.04063ZM59.128124 94.04063Q59.128124 96.15 59.628124 96.85313Q60.128124 97.55625 60.846874 97.55625Q61.58125 97.55625 62.065624 96.85313Q62.565624 96.15 62.565624 94.04063Q62.565624 91.91563 62.065624 91.22813Q61.58125 90.525 60.83125 90.525Q60.1125 90.525 59.675 91.13438Q59.128124 91.91563 59.128124 94.04063ZM65.05 94.04063Q65.05 92.50938 65.3625 91.5875Q65.675 90.65 66.28438 90.15Q66.90938 89.65 67.84688 89.65Q68.53438 89.65 69.05 89.93125Q69.58125 90.2125 69.925 90.74375Q70.26875 91.25938 70.45625 92.00938Q70.64375 92.75938 70.64375 94.04063Q70.64375 95.55625 70.33125 96.47813Q70.03438 97.4 69.40938 97.91563Q68.8 98.41563 67.84688 98.41563Q66.6125 98.41563 65.89375 97.525Q65.05 96.4625 65.05 94.04063ZM66.12813 94.04063Q66.12813 96.15 66.62813 96.85313Q67.12813 97.55625 67.84688 97.55625Q68.58125 97.55625 69.06563 96.85313Q69.56563 96.15 69.56563 94.04063Q69.56563 91.91563 69.06563 91.22813Q68.58125 90.525 67.83125 90.525Q67.1125 90.525 66.675 91.13438Q66.12813 91.91563 66.12813 94.04063ZM72.05 94.04063Q72.05 92.50938 72.3625 91.5875Q72.675 90.65 73.28438 90.15Q73.90938 89.65 74.84688 89.65Q75.53438 89.65 76.05 89.93125Q76.58125 90.2125 76.925 90.74375Q77.26875 91.25938 77.45625 92.00938Q77.64375 92.75938 77.64375 94.04063Q77.64375 95.55625 77.33125 96.47813Q77.03438 97.4 76.40938 97.91563Q75.8 98.41563 74.84688 98.41563Q73.6125 98.41563 72.89375 97.525Q72.05 96.4625 72.05 94.04063ZM73.12813 94.04063Q73.12813 96.15 73.62813 96.85313Q74.12813 97.55625 74.84688 97.55625Q75.58125 97.55625 76.06563 96.85313Q76.56563 96.15 76.56563 94.04063Q76.56563 91.91563 76.06563 91.22813Q75.58125 90.525 74.83125 90.525Q74.1125 90.525 73.675 91.13438Q73.12813 91.91563 73.12813 94.04063Z" fill-rule="nonzero"/><path fill="#000000" d="M56.596874 28.534374L56.596874 29.55L50.909374 29.55Q50.909374 29.175 51.034374 28.815624Q51.253124 28.2375 51.721874 27.675Q52.20625 27.1125 53.1125 26.378124Q54.51875 25.221874 55.003124 24.55Q55.503124 23.878124 55.503124 23.284374Q55.503124 22.659374 55.05 22.2375Q54.596874 21.8 53.878124 21.8Q53.1125 21.8 52.659374 22.253124Q52.20625 22.70625 52.190624 23.51875L51.1125 23.409374Q51.221874 22.190624 51.940624 21.565624Q52.675 20.925 53.909374 20.925Q55.14375 20.925 55.8625 21.6125Q56.58125 22.3 56.58125 23.315624Q56.58125 23.83125 56.3625 24.33125Q56.159374 24.815624 55.659374 25.378124Q55.175 25.925 54.05 26.878124Q53.096874 27.675 52.815624 27.971874Q52.55 28.253124 52.378124 28.534374L56.596874 28.534374ZM58.05 27.3L59.159374 27.20625Q59.284374 28.01875 59.721874 28.425Q60.175 28.83125 60.815624 28.83125Q61.565624 28.83125 62.096874 28.253124Q62.628124 27.675 62.628124 26.7375Q62.628124 25.83125 62.1125 25.315624Q61.6125 24.784374 60.784374 24.784374Q60.284374 24.784374 59.8625 25.01875Q59.45625 25.253124 59.221874 25.6125L58.2375 25.4875L59.065624 21.08125L63.346874 21.08125L63.346874 22.08125L59.909374 22.08125L59.45625 24.39375Q60.221874 23.846874 61.065624 23.846874Q62.190624 23.846874 62.95625 24.628124Q63.7375 25.409374 63.7375 26.64375Q63.7375 27.8 63.065624 28.659374Q62.2375 29.690624 60.815624 29.690624Q59.64375 29.690624 58.89375 29.034374Q58.159374 28.378124 58.05 27.3ZM65.05 25.315624Q65.05 23.784374 65.3625 22.8625Q65.675 21.925 66.28438 21.425Q66.90938 20.925 67.84688 20.925Q68.53438 20.925 69.05 21.20625Q69.58125 21.4875 69.925 22.01875Q70.26875 22.534374 70.45625 23.284374Q70.64375 24.034374 70.64375 25.315624Q70.64375 26.83125 70.33125 27.753124Q70.03438 28.675 69.40938 29.190624Q68.8 29.690624 67.84688 29.690624Q66.6125 29.690624 65.89375 28.8Q65.05 27.7375 65.05 25.315624ZM66.12813 25.315624Q66.12813 27.425 66.62813 28.128124Q67.12813 28.83125 67.84688 28.83125Q68.58125 28.83125 69.06563 28.128124Q69.56563 27.425 69.56563 25.315624Q69.56563 23.190624 69.06563 22.503124Q68.58125 21.8 67.83125 21.8Q67.1125 21.8 66.675 22.409374Q66.12813 23.190624 66.12813 25.315624ZM72.05 25.315624Q72.05 23.784374 72.3625 22.8625Q72.675 21.925 73.28438 21.425Q73.90938 20.925 74.84688 20.925Q75.53438 20.925 76.05 21.20625Q76.58125 21.4875 76.925 22.01875Q77.26875 22.534374 77.45625 23.284374Q77.64375 24.034374 77.64375 25.315624Q77.64375 26.83125 77.33125 27.753124Q77.03438 28.675 76.40938 29.190624Q75.8 29.690624 74.84688 29.690624Q73.6125 29.690624 72.89375 28.8Q72.05 27.7375 72.05 25.315624ZM73.12813 25.315624Q73.12813 27.425 73.62813 28.128124Q74.12813 28.83125 74.84688 28.83125Q75.58125 28.83125 76.06563 28.128124Q76.56563 27.425 76.56563 25.315624Q76.56563 23.190624 76.06563 22.503124Q75.58125 21.8 74.83125 21.8Q74.1125 21.8 73.675 22.409374Q73.12813 23.190624 73.12813 25.315624Z" fill-rule="nonzero"/><path fill="#000000" d="M54.05 313.21564Q54.05 311.6844 54.3625 310.7625Q54.675 309.825 55.284374 309.325Q55.909374 308.825 56.846874 308.825Q57.534374 308.825 58.05 309.10626Q58.58125 309.3875 58.925 309.91876Q59.26875 310.4344 59.45625 311.1844Q59.64375 311.9344 59.64375 313.21564Q59.64375 314.73126 59.33125 315.65314Q59.034374 316.575 58.409374 317.09064Q57.8 317.59064 56.846874 317.59064Q55.6125 317.59064 54.89375 316.7Q54.05 315.6375 54.05 313.21564ZM55.128124 313.21564Q55.128124 315.325 55.628124 316.02814Q56.128124 316.73126 56.846874 316.73126Q57.58125 316.73126 58.065624 316.02814Q58.565624 315.325 58.565624 313.21564Q58.565624 311.09064 58.065624 310.40314Q57.58125 309.7 56.83125 309.7Q56.1125 309.7 55.675 310.3094Q55.128124 311.09064 55.128124 313.21564ZM65.01875 317.45L63.971874 317.45L63.971874 310.73126Q63.58125 311.09064 62.95625 311.46564Q62.346874 311.825 61.8625 311.9969L61.8625 310.98126Q62.7375 310.5594 63.39375 309.98126Q64.06563 309.3875 64.34688 308.825L65.01875 308.825L65.01875 317.45ZM67.55 317.59064L70.03438 308.71564L70.87813 308.71564L68.39375 317.59064L67.55 317.59064ZM71.05 313.21564Q71.05 311.6844 71.3625 310.7625Q71.675 309.825 72.28438 309.325Q72.90938 308.825 73.84688 308.825Q74.53438 308.825 75.05 309.10626Q75.58125 309.3875 75.925 309.91876Q76.26875 310.4344 76.45625 311.1844Q76.64375 311.9344 76.64375 313.21564Q76.64375 314.73126 76.33125 315.65314Q76.03438 316.575 75.40938 317.09064Q74.8 317.59064 73.84688 317.59064Q72.6125 317.59064 71.89375 316.7Q71.05 315.6375 71.05 313.21564ZM72.12813 313.21564Q72.12813 315.325 72.62813 316.02814Q73.12813 316.73126 73.84688 316.73126Q74.58125 316.73126 75.06563 316.02814Q75.56563 315.325 75.56563 313.21564Q75.56563 311.09064 75.06563 310.40314Q74.58125 309.7 73.83125 309.7Q73.1125 309.7 72.675 310.3094Q72.12813 311.09064 72.12813 313.21564ZM82.01875 317.45L80.97188 317.45L80.97188 310.73126Q80.58125 311.09064 79.95625 311.46564Q79.34688 311.825 78.8625 311.9969L78.8625 310.98126Q79.7375 310.5594 80.39375 309.98126Q81.06563 309.3875 81.34688 308.825L82.01875 308.825L82.01875 317.45ZM84.55 317.59064L87.03438 308.71564L87.87813 308.71564L85.39375 317.59064L84.55 317.59064ZM93.59688 316.4344L93.59688 317.45L87.90938 317.45Q87.90938 317.075 88.03438 316.71564Q88.25313 316.1375 88.72188 315.575Q89.20625 315.0125 90.1125 314.27814Q91.51875 313.1219 92.00313 312.45Q92.50313 311.77814 92.50313 311.1844Q92.50313 310.5594 92.05 310.1375Q91.59688 309.7 90.87813 309.7Q90.1125 309.7 89.65938 310.15314Q89.20625 310.60626 89.19063 311.41876L88.1125 311.3094Q88.22188 310.09064 88.94063 309.46564Q89.675 308.825 90.90938 308.825Q92.14375 308.825 92.8625 309.5125Q93.58125 310.2 93.58125 311.21564Q93.58125 311.73126 93.3625 312.23126Q93.15938 312.71564 92.65938 313.27814Q92.175 313.825 91.05 314.77814Q90.09688 315.575 89.81563 315.8719Q89.55 316.15314 89.37813 316.4344L93.59688 316.4344ZM95.05 313.21564Q95.05 311.6844 95.3625 310.7625Q95.675 309.825 96.28438 309.325Q96.90938 308.825 97.84688 308.825Q98.53438 308.825 99.05 309.10626Q99.58125 309.3875 99.925 309.91876Q100.26875 310.4344 100.45625 311.1844Q100.64375 311.9344 100.64375 313.21564Q100.64375 314.73126 100.33125 315.65314Q100.03438 316.575 99.40938 317.09064Q98.8 317.59064 97.84688 317.59064Q96.6125 317.59064 95.89375 316.7Q95.05 315.6375 95.05 313.21564ZM96.12813 313.21564Q96.12813 315.325 96.62813 316.02814Q97.12813 316.73126 97.84688 316.73126Q98.58125 316.73126 99.06563 316.02814Q99.56563 315.325 99.56563 313.21564Q99.56563 311.09064 99.06563 310.40314Q98.58125 309.7 97.83125 309.7Q97.1125 309.7 96.675 310.3094Q96.12813 311.09064 96.12813 313.21564ZM107.59688 316.4344L107.59688 317.45L101.90938 317.45Q101.90938 317.075 102.03438 316.71564Q102.25313 316.1375 102.72188 315.575Q103.20625 315.0125 104.1125 314.27814Q105.51875 313.1219 106.00313 312.45Q106.50313 311.77814 106.50313 311.1844Q106.50313 310.5594 106.05 310.1375Q105.59688 309.7 104.87813 309.7Q104.1125 309.7 103.65938 310.15314Q103.20625 310.60626 103.19063 311.41876L102.1125 311.3094Q102.22188 310.09064 102.94063 309.46564Q103.675 308.825 104.90938 308.825Q106.14375 308.825 106.8625 309.5125Q107.58125 310.2 107.58125 311.21564Q107.58125 311.73126 107.3625 312.23126Q107.15938 312.71564 106.65938 313.27814Q106.175 313.825 105.05 314.77814Q104.09688 315.575 103.81563 315.8719Q103.55 316.15314 103.37813 316.4344L107.59688 316.4344ZM114.59688 316.4344L114.59688 317.45L108.90938 317.45Q108.90938 317.075 109.03438 316.71564Q109.25313 316.1375 109.72188 315.575Q110.20625 315.0125 111.1125 314.27814Q112.51875 313.1219 113.00313 312.45Q113.50313 311.77814 113.50313 311.1844Q113.50313 310.5594 113.05 310.1375Q112.59688 309.7 111.87813 309.7Q111.1125 309.7 110.65938 310.15314Q110.20625 310.60626 110.19063 311.41876L109.1125 311.3094Q109.22188 310.09064 109.94063 309.46564Q110.675 308.825 111.90938 308.825Q113.14375 308.825 113.8625 309.5125Q114.58125 310.2 114.58125 311.21564Q114.58125 311.73126 114.3625 312.23126Q114.15938 312.71564 113.65938 313.27814Q113.175 313.825 112.05 314.77814Q111.09688 315.575 110.81563 315.8719Q110.55 316.15314 110.37813 316.4344L114.59688 316.4344Z" fill-rule="nonzero"/><path fill="#000000" d="M152.25699 313.21564Q152.25699 311.6844 152.56949 310.7625Q152.88199 309.825 153.49136 309.325Q154.11636 308.825 155.05386 308.825Q155.74136 308.825 156.25699 309.10626Q156.78824 309.3875 157.13199 309.91876Q157.47574 310.4344 157.66324 311.1844Q157.85074 311.9344 157.85074 313.21564Q157.85074 314.73126 157.53824 315.65314Q157.24136 316.575 156.61636 317.09064Q156.00699 317.59064 155.05386 317.59064Q153.81949 317.59064 153.10074 316.7Q152.25699 315.6375 152.25699 313.21564ZM153.33511 313.21564Q153.33511 315.325 153.83511 316.02814Q154.33511 316.73126 155.05386 316.73126Q155.78824 316.73126 156.27261 316.02814Q156.77261 315.325 156.77261 313.21564Q156.77261 311.09064 156.27261 310.40314Q155.78824 309.7 155.03824 309.7Q154.31949 309.7 153.88199 310.3094Q153.33511 311.09064 153.33511 313.21564ZM163.22574 317.45L162.17886 317.45L162.17886 310.73126Q161.78824 311.09064 161.16324 311.46564Q160.55386 311.825 160.06949 311.9969L160.06949 310.98126Q160.94449 310.5594 161.60074 309.98126Q162.27261 309.3875 162.55386 308.825L163.22574 308.825L163.22574 317.45ZM165.75699 317.59064L168.24136 308.71564L169.08511 308.71564L166.60074 317.59064L165.75699 317.59064ZM169.25699 313.21564Q169.25699 311.6844 169.56949 310.7625Q169.88199 309.825 170.49136 309.325Q171.11636 308.825 172.05386 308.825Q172.74136 308.825 173.25699 309.10626Q173.78824 309.3875 174.13199 309.91876Q174.47574 310.4344 174.66324 311.1844Q174.85074 311.9344 174.85074 313.21564Q174.85074 314.73126 174.53824 315.65314Q174.24136 316.575 173.61636 317.09064Q173.00699 317.59064 172.05386 317.59064Q170.81949 317.59064 170.10074 316.7Q169.25699 315.6375 169.25699 313.21564ZM170.33511 313.21564Q170.33511 315.325 170.83511 316.02814Q171.33511 316.73126 172.05386 316.73126Q172.78824 316.73126 173.27261 316.02814Q173.77261 315.325 173.77261 313.21564Q173.77261 311.09064 173.27261 310.40314Q172.78824 309.7 172.03824 309.7Q171.31949 309.7 170.88199 310.3094Q170.33511 311.09064 170.33511 313.21564ZM176.25699 315.1844L177.31949 315.04376Q177.49136 315.9344 177.92886 316.34064Q178.36636 316.73126 178.99136 316.73126Q179.74136 316.73126 180.25699 316.21564Q180.77261 315.7 180.77261 314.9344Q180.77261 314.21564 180.28824 313.7469Q179.81949 313.2625 179.08511 313.2625Q178.78824 313.2625 178.33511 313.3875L178.46011 312.45Q178.56949 312.46564 178.63199 312.46564Q179.30386 312.46564 179.83511 312.1219Q180.38199 311.7625 180.38199 311.02814Q180.38199 310.45 179.99136 310.075Q179.60074 309.6844 178.97574 309.6844Q178.36636 309.6844 177.94449 310.075Q177.53824 310.46564 177.42886 311.23126L176.36636 311.04376Q176.55386 309.9969 177.24136 309.41876Q177.92886 308.825 178.94449 308.825Q179.64761 308.825 180.24136 309.1375Q180.83511 309.4344 181.14761 309.95Q181.46011 310.46564 181.46011 311.0594Q181.46011 311.60626 181.16324 312.075Q180.86636 312.52814 180.28824 312.79376Q181.03824 312.96564 181.46011 313.52814Q181.88199 314.075 181.88199 314.91876Q181.88199 316.04376 181.05386 316.825Q180.24136 317.60626 178.99136 317.60626Q177.86636 317.60626 177.11636 316.9344Q176.36636 316.2469 176.25699 315.1844ZM182.75699 317.59064L185.24136 308.71564L186.08511 308.71564L183.60074 317.59064L182.75699 317.59064ZM191.80386 316.4344L191.80386 317.45L186.11636 317.45Q186.11636 317.075 186.24136 316.71564Q186.46011 316.1375 186.92886 315.575Q187.41324 315.0125 188.31949 314.27814Q189.72574 313.1219 190.21011 312.45Q190.71011 311.77814 190.71011 311.1844Q190.71011 310.5594 190.25699 310.1375Q189.80386 309.7 189.08511 309.7Q188.31949 309.7 187.86636 310.15314Q187.41324 310.60626 187.39761 311.41876L186.31949 311.3094Q186.42886 310.09064 187.14761 309.46564Q187.88199 308.825 189.11636 308.825Q190.35074 308.825 191.06949 309.5125Q191.78824 310.2 191.78824 311.21564Q191.78824 311.73126 191.56949 312.23126Q191.36636 312.71564 190.86636 313.27814Q190.38199 313.825 189.25699 314.77814Q188.30386 315.575 188.02261 315.8719Q187.75699 316.15314 187.58511 316.4344L191.80386 316.4344ZM193.25699 313.21564Q193.25699 311.6844 193.56949 310.7625Q193.88199 309.825 194.49136 309.325Q195.11636 308.825 196.05386 308.825Q196.74136 308.825 197.25699 309.10626Q197.78824 309.3875 198.13199 309.91876Q198.47574 310.4344 198.66324 311.1844Q198.85074 311.9344 198.85074 313.21564Q198.85074 314.73126 198.53824 315.65314Q198.24136 316.575 197.61636 317.09064Q197.00699 317.59064 196.05386 317.59064Q194.81949 317.59064 194.10074 316.7Q193.25699 315.6375 193.25699 313.21564ZM194.33511 313.21564Q194.33511 315.325 194.83511 316.02814Q195.33511 316.73126 196.05386 316.73126Q196.78824 316.73126 197.27261 316.02814Q197.77261 315.325 197.77261 313.21564Q197.77261 311.09064 197.27261 310.40314Q196.78824 309.7 196.03824 309.7Q195.31949 309.7 194.88199 310.3094Q194.33511 311.09064 194.33511 313.21564ZM205.80386 316.4344L205.80386 317.45L200.11636 317.45Q200.11636 317.075 200.24136 316.71564Q200.46011 316.1375 200.92886 315.575Q201.41324 315.0125 202.31949 314.27814Q203.72574 313.1219 204.21011 312.45Q204.71011 311.77814 204.71011 311.1844Q204.71011 310.5594 204.25699 310.1375Q203.80386 309.7 203.08511 309.7Q202.31949 309.7 201.86636 310.15314Q201.41324 310.60626 201.39761 311.41876L200.31949 311.3094Q200.42886 310.09064 201.14761 309.46564Q201.88199 308.825 203.11636 308.825Q204.35074 308.825 205.06949 309.5125Q205.78824 310.2 205.78824 311.21564Q205.78824 311.73126 205.56949 312.23126Q205.36636 312.71564 204.86636 313.27814Q204.38199 313.825 203.25699 314.77814Q202.30386 315.575 202.02261 315.8719Q201.75699 316.15314 201.58511 316.4344L205.80386 316.4344ZM212.80386 316.4344L212.80386 317.45L207.11636 317.45Q207.11636 317.075 207.24136 316.71564Q207.46011 316.1375 207.92886 315.575Q208.41324 315.0125 209.31949 314.27814Q210.72574 313.1219 211.21011 312.45Q211.71011 311.77814 211.71011 311.1844Q211.71011 310.5594 211.25699 310.1375Q210.80386 309.7 210.08511 309.7Q209.31949 309.7 208.86636 310.15314Q208.41324 310.60626 208.39761 311.41876L207.31949 311.3094Q207.42886 310.09064 208.14761 309.46564Q208.88199 308.825 210.11636 308.825Q211.35074 308.825 212.06949 309.5125Q212.78824 310.2 212.78824 311.21564Q212.78824 311.73126 212.56949 312.23126Q212.36636 312.71564 211.86636 313.27814Q211.38199 313.825 210.25699 314.77814Q209.30386 315.575 209.02261 315.8719Q208.75699 316.15314 208.58511 316.4344L212.80386 316.4344Z" fill-rule="nonzero"/><path fill="#000000" d="M253.79301 313.21564Q253.79301 311.6844 254.10551 310.7625Q254.41801 309.825 255.02739 309.325Q255.65239 308.825 256.5899 308.825Q257.2774 308.825 257.79303 309.10626Q258.32428 309.3875 258.66803 309.91876Q259.01178 310.4344 259.19928 311.1844Q259.38678 311.9344 259.38678 313.21564Q259.38678 314.73126 259.07428 315.65314Q258.7774 316.575 258.1524 317.09064Q257.54303 317.59064 256.5899 317.59064Q255.35551 317.59064 254.63676 316.7Q253.79301 315.6375 253.79301 313.21564ZM254.87114 313.21564Q254.87114 315.325 255.37114 316.02814Q255.87114 316.73126 256.5899 316.73126Q257.32428 316.73126 257.80865 316.02814Q258.30865 315.325 258.30865 313.21564Q258.30865 311.09064 257.80865 310.40314Q257.32428 309.7 256.57428 309.7Q255.85551 309.7 255.41801 310.3094Q254.87114 311.09064 254.87114 313.21564ZM264.76178 317.45L263.7149 317.45L263.7149 310.73126Q263.32428 311.09064 262.69928 311.46564Q262.0899 311.825 261.60553 311.9969L261.60553 310.98126Q262.48053 310.5594 263.13678 309.98126Q263.80865 309.3875 264.0899 308.825L264.76178 308.825L264.76178 317.45ZM267.29303 317.59064L269.7774 308.71564L270.62115 308.71564L268.13678 317.59064L267.29303 317.59064ZM270.79303 313.21564Q270.79303 311.6844 271.10553 310.7625Q271.41803 309.825 272.0274 309.325Q272.6524 308.825 273.5899 308.825Q274.2774 308.825 274.79303 309.10626Q275.32428 309.3875 275.66803 309.91876Q276.01178 310.4344 276.19928 311.1844Q276.38678 311.9344 276.38678 313.21564Q276.38678 314.73126 276.07428 315.65314Q275.7774 316.575 275.1524 317.09064Q274.54303 317.59064 273.5899 317.59064Q272.35553 317.59064 271.63678 316.7Q270.79303 315.6375 270.79303 313.21564ZM271.87115 313.21564Q271.87115 315.325 272.37115 316.02814Q272.87115 316.73126 273.5899 316.73126Q274.32428 316.73126 274.80865 316.02814Q275.30865 315.325 275.30865 313.21564Q275.30865 311.09064 274.80865 310.40314Q274.32428 309.7 273.57428 309.7Q272.85553 309.7 272.41803 310.3094Q271.87115 311.09064 271.87115 313.21564ZM277.79303 315.2L278.9024 315.10626Q279.0274 315.91876 279.4649 316.325Q279.91803 316.73126 280.55865 316.73126Q281.30865 316.73126 281.8399 316.15314Q282.37115 315.575 282.37115 314.6375Q282.37115 313.73126 281.85553 313.21564Q281.35553 312.6844 280.5274 312.6844Q280.0274 312.6844 279.60553 312.91876Q279.19928 313.15314 278.9649 313.5125L277.98053 313.3875L278.80865 308.98126L283.0899 308.98126L283.0899 309.98126L279.6524 309.98126L279.19928 312.29376Q279.9649 311.7469 280.80865 311.7469Q281.93365 311.7469 282.69928 312.52814Q283.48053 313.3094 283.48053 314.54376Q283.48053 315.7 282.80865 316.5594Q281.98053 317.59064 280.55865 317.59064Q279.38678 317.59064 278.63678 316.9344Q277.9024 316.27814 277.79303 315.2ZM284.29303 317.59064L286.7774 308.71564L287.62115 308.71564L285.13678 317.59064L284.29303 317.59064ZM293.3399 316.4344L293.3399 317.45L287.6524 317.45Q287.6524 317.075 287.7774 316.71564Q287.99615 316.1375 288.4649 315.575Q288.94928 315.0125 289.85553 314.27814Q291.26178 313.1219 291.74615 312.45Q292.24615 311.77814 292.24615 311.1844Q292.24615 310.5594 291.79303 310.1375Q291.3399 309.7 290.62115 309.7Q289.85553 309.7 289.4024 310.15314Q288.94928 310.60626 288.93365 311.41876L287.85553 311.3094Q287.9649 310.09064 288.68365 309.46564Q289.41803 308.825 290.6524 308.825Q291.88678 308.825 292.60553 309.5125Q293.32428 310.2 293.32428 311.21564Q293.32428 311.73126 293.10553 312.23126Q292.9024 312.71564 292.4024 313.27814Q291.91803 313.825 290.79303 314.77814Q289.8399 315.575 289.55865 315.8719Q289.29303 316.15314 289.12115 316.4344L293.3399 316.4344ZM294.79303 313.21564Q294.79303 311.6844 295.10553 310.7625Q295.41803 309.825 296.0274 309.325Q296.6524 308.825 297.5899 308.825Q298.2774 308.825 298.79303 309.10626Q299.32428 309.3875 299.66803 309.91876Q300.01178 310.4344 300.19928 311.1844Q300.38678 311.9344 300.38678 313.21564Q300.38678 314.73126 300.07428 315.65314Q299.7774 316.575 299.1524 317.09064Q298.54303 317.59064 297.5899 317.59064Q296.35553 317.59064 295.63678 316.7Q294.79303 315.6375 294.79303 313.21564ZM295.87115 313.21564Q295.87115 315.325 296.37115 316.02814Q296.87115 316.73126 297.5899 316.73126Q298.32428 316.73126 298.80865 316.02814Q299.30865 315.325 299.30865 313.21564Q299.30865 311.09064 298.80865 310.40314Q298.32428 309.7 297.57428 309.7Q296.85553 309.7 296.41803 310.3094Q295.87115 311.09064 295.87115 313.21564ZM307.3399 316.4344L307.3399 317.45L301.6524 317.45Q301.6524 317.075 301.7774 316.71564Q301.99615 316.1375 302.4649 315.575Q302.94928 315.0125 303.85553 314.27814Q305.26178 313.1219 305.74615 312.45Q306.24615 311.77814 306.24615 311.1844Q306.24615 310.5594 305.79303 310.1375Q305.3399 309.7 304.62115 309.7Q303.85553 309.7 303.4024 310.15314Q302.94928 310.60626 302.93365 311.41876L301.85553 311.3094Q301.9649 310.09064 302.68365 309.46564Q303.41803 308.825 304.6524 308.825Q305.88678 308.825 306.60553 309.5125Q307.32428 310.2 307.32428 311.21564Q307.32428 311.73126 307.10553 312.23126Q306.9024 312.71564 306.4024 313.27814Q305.91803 313.825 304.79303 314.77814Q303.8399 315.575 303.55865 315.8719Q303.29303 316.15314 303.12115 316.4344L307.3399 316.4344ZM314.3399 316.4344L314.3399 317.45L308.6524 317.45Q308.6524 317.075 308.7774 316.71564Q308.99615 316.1375 309.4649 315.575Q309.94928 315.0125 310.85553 314.27814Q312.26178 313.1219 312.74615 312.45Q313.24615 311.77814 313.24615 311.1844Q313.24615 310.5594 312.79303 310.1375Q312.3399 309.7 311.62115 309.7Q310.85553 309.7 310.4024 310.15314Q309.94928 310.60626 309.93365 311.41876L308.85553 311.3094Q308.9649 310.09064 309.68365 309.46564Q310.41803 308.825 311.6524 308.825Q312.88678 308.825 313.60553 309.5125Q314.32428 310.2 314.32428 311.21564Q314.32428 311.73126 314.10553 312.23126Q313.9024 312.71564 313.4024 313.27814Q312.91803 313.825 311.79303 314.77814Q310.8399 315.575 310.55865 315.8719Q310.29303 316.15314 310.12115 316.4344L314.3399 316.4344Z" fill-rule="nonzero"/><path fill="#000000" d="M355.32904 313.21564Q355.32904 311.6844 355.64154 310.7625Q355.95404 309.825 356.56342 309.325Q357.18842 308.825 358.12592 308.825Q358.81342 308.825 359.32904 309.10626Q359.8603 309.3875 360.20404 309.91876Q360.5478 310.4344 360.7353 311.1844Q360.9228 311.9344 360.9228 313.21564Q360.9228 314.73126 360.6103 315.65314Q360.31342 316.575 359.68842 317.09064Q359.07904 317.59064 358.12592 317.59064Q356.89154 317.59064 356.1728 316.7Q355.32904 315.6375 355.32904 313.21564ZM356.40717 313.21564Q356.40717 315.325 356.90717 316.02814Q357.40717 316.73126 358.12592 316.73126Q358.8603 316.73126 359.34467 316.02814Q359.84467 315.325 359.84467 313.21564Q359.84467 311.09064 359.34467 310.40314Q358.8603 309.7 358.1103 309.7Q357.39154 309.7 356.95404 310.3094Q356.40717 311.09064 356.40717 313.21564ZM366.2978 317.45L365.25092 317.45L365.25092 310.73126Q364.8603 311.09064 364.2353 311.46564Q363.62592 311.825 363.14154 311.9969L363.14154 310.98126Q364.01654 310.5594 364.6728 309.98126Q365.34467 309.3875 365.62592 308.825L366.2978 308.825L366.2978 317.45ZM368.82904 317.59064L371.31342 308.71564L372.15717 308.71564L369.6728 317.59064L368.82904 317.59064ZM372.32904 313.21564Q372.32904 311.6844 372.64154 310.7625Q372.95404 309.825 373.56342 309.325Q374.18842 308.825 375.12592 308.825Q375.81342 308.825 376.32904 309.10626Q376.8603 309.3875 377.20404 309.91876Q377.5478 310.4344 377.7353 311.1844Q377.9228 311.9344 377.9228 313.21564Q377.9228 314.73126 377.6103 315.65314Q377.31342 316.575 376.68842 317.09064Q376.07904 317.59064 375.12592 317.59064Q373.89154 317.59064 373.1728 316.7Q372.32904 315.6375 372.32904 313.21564ZM373.40717 313.21564Q373.40717 315.325 373.90717 316.02814Q374.40717 316.73126 375.12592 316.73126Q375.8603 316.73126 376.34467 316.02814Q376.84467 315.325 376.84467 313.21564Q376.84467 311.09064 376.34467 310.40314Q375.8603 309.7 375.1103 309.7Q374.39154 309.7 373.95404 310.3094Q373.40717 311.09064 373.40717 313.21564ZM379.39154 309.98126L379.39154 308.96564L384.95404 308.96564L384.95404 309.79376Q384.14154 310.66876 383.32904 312.1219Q382.53217 313.5594 382.09467 315.09064Q381.76654 316.16876 381.68842 317.45L380.59467 317.45Q380.6103 316.4344 380.9853 314.9969Q381.37592 313.5594 382.07904 312.23126Q382.7978 310.90314 383.6103 309.98126L379.39154 309.98126ZM385.82904 317.59064L388.31342 308.71564L389.15717 308.71564L386.6728 317.59064L385.82904 317.59064ZM394.87592 316.4344L394.87592 317.45L389.18842 317.45Q389.18842 317.075 389.31342 316.71564Q389.53217 316.1375 390.00092 315.575Q390.4853 315.0125 391.39154 314.27814Q392.7978 313.1219 393.28217 312.45Q393.78217 311.77814 393.78217 311.1844Q393.78217 310.5594 393.32904 310.1375Q392.87592 309.7 392.15717 309.7Q391.39154 309.7 390.93842 310.15314Q390.4853 310.60626 390.46967 311.41876L389.39154 311.3094Q389.50092 310.09064 390.21967 309.46564Q390.95404 308.825 392.18842 308.825Q393.4228 308.825 394.14154 309.5125Q394.8603 310.2 394.8603 311.21564Q394.8603 311.73126 394.64154 312.23126Q394.43842 312.71564 393.93842 313.27814Q393.45404 313.825 392.32904 314.77814Q391.37592 315.575 391.09467 315.8719Q390.82904 316.15314 390.65717 316.4344L394.87592 316.4344ZM396.32904 313.21564Q396.32904 311.6844 396.64154 310.7625Q396.95404 309.825 397.56342 309.325Q398.18842 308.825 399.12592 308.825Q399.81342 308.825 400.32904 309.10626Q400.8603 309.3875 401.20404 309.91876Q401.5478 310.4344 401.7353 311.1844Q401.9228 311.9344 401.9228 313.21564Q401.9228 314.73126 401.6103 315.65314Q401.31342 316.575 400.68842 317.09064Q400.07904 317.59064 399.12592 317.59064Q397.89154 317.59064 397.1728 316.7Q396.32904 315.6375 396.32904 313.21564ZM397.40717 313.21564Q397.40717 315.325 397.90717 316.02814Q398.40717 316.73126 399.12592 316.73126Q399.8603 316.73126 400.34467 316.02814Q400.84467 315.325 400.84467 313.21564Q400.84467 311.09064 400.34467 310.40314Q399.8603 309.7 399.1103 309.7Q398.39154 309.7 397.95404 310.3094Q397.40717 311.09064 397.40717 313.21564ZM408.87592 316.4344L408.87592 317.45L403.18842 317.45Q403.18842 317.075 403.31342 316.71564Q403.53217 316.1375 404.00092 315.575Q404.4853 315.0125 405.39154 314.27814Q406.7978 313.1219 407.28217 312.45Q407.78217 311.77814 407.78217 311.1844Q407.78217 310.5594 407.32904 310.1375Q406.87592 309.7 406.15717 309.7Q405.39154 309.7 404.93842 310.15314Q404.4853 310.60626 404.46967 311.41876L403.39154 311.3094Q403.50092 310.09064 404.21967 309.46564Q404.95404 308.825 406.18842 308.825Q407.4228 308.825 408.14154 309.5125Q408.8603 310.2 408.8603 311.21564Q408.8603 311.73126 408.64154 312.23126Q408.43842 312.71564 407.93842 313.27814Q407.45404 313.825 406.32904 314.77814Q405.37592 315.575 405.09467 315.8719Q404.82904 316.15314 404.65717 316.4344L408.87592 316.4344ZM415.87592 316.4344L415.87592 317.45L410.18842 317.45Q410.18842 317.075 410.31342 316.71564Q410.53217 316.1375 411.00092 315.575Q411.4853 315.0125 412.39154 314.27814Q413.7978 313.1219 414.28217 312.45Q414.78217 311.77814 414.78217 311.1844Q414.78217 310.5594 414.32904 310.1375Q413.87592 309.7 413.15717 309.7Q412.39154 309.7 411.93842 310.15314Q411.4853 310.60626 411.46967 311.41876L410.39154 311.3094Q410.50092 310.09064 411.21967 309.46564Q411.95404 308.825 413.18842 308.825Q414.4228 308.825 415.14154 309.5125Q415.8603 310.2 415.8603 311.21564Q415.8603 311.73126 415.64154 312.23126Q415.43842 312.71564 414.93842 313.27814Q414.45404 313.825 413.32904 314.77814Q412.37592 315.575 412.09467 315.8719Q411.82904 316.15314 411.65717 316.4344L415.87592 316.4344Z" fill-rule="nonzero"/><path fill="#000000" d="M458.5296 313.21564Q458.5296 311.6844 458.8421 310.7625Q459.1546 309.825 459.76398 309.325Q460.38898 308.825 461.32648 308.825Q462.01398 308.825 462.5296 309.10626Q463.06085 309.3875 463.4046 309.91876Q463.74835 310.4344 463.93585 311.1844Q464.12335 311.9344 464.12335 313.21564Q464.12335 314.73126 463.81085 315.65314Q463.51398 316.575 462.88898 317.09064Q462.2796 317.59064 461.32648 317.59064Q460.0921 317.59064 459.37335 316.7Q458.5296 315.6375 458.5296 313.21564ZM459.60773 313.21564Q459.60773 315.325 460.10773 316.02814Q460.60773 316.73126 461.32648 316.73126Q462.06085 316.73126 462.54523 316.02814Q463.04523 315.325 463.04523 313.21564Q463.04523 311.09064 462.54523 310.40314Q462.06085 309.7 461.31085 309.7Q460.5921 309.7 460.1546 310.3094Q459.60773 311.09064 459.60773 313.21564ZM469.49835 317.45L468.45148 317.45L468.45148 310.73126Q468.06085 311.09064 467.43585 311.46564Q466.82648 311.825 466.3421 311.9969L466.3421 310.98126Q467.2171 310.5594 467.87335 309.98126Q468.54523 309.3875 468.82648 308.825L469.49835 308.825L469.49835 317.45ZM472.0296 317.59064L474.51398 308.71564L475.35773 308.71564L472.87335 317.59064L472.0296 317.59064ZM475.5296 313.21564Q475.5296 311.6844 475.8421 310.7625Q476.1546 309.825 476.76398 309.325Q477.38898 308.825 478.32648 308.825Q479.01398 308.825 479.5296 309.10626Q480.06085 309.3875 480.4046 309.91876Q480.74835 310.4344 480.93585 311.1844Q481.12335 311.9344 481.12335 313.21564Q481.12335 314.73126 480.81085 315.65314Q480.51398 316.575 479.88898 317.09064Q479.2796 317.59064 478.32648 317.59064Q477.0921 317.59064 476.37335 316.7Q475.5296 315.6375 475.5296 313.21564ZM476.60773 313.21564Q476.60773 315.325 477.10773 316.02814Q477.60773 316.73126 478.32648 316.73126Q479.06085 316.73126 479.54523 316.02814Q480.04523 315.325 480.04523 313.21564Q480.04523 311.09064 479.54523 310.40314Q479.06085 309.7 478.31085 309.7Q477.5921 309.7 477.1546 310.3094Q476.60773 311.09064 476.60773 313.21564ZM482.68585 315.46564L483.70148 315.3719Q483.82648 316.09064 484.18585 316.41876Q484.56085 316.73126 485.12335 316.73126Q485.60773 316.73126 485.9671 316.5125Q486.3421 316.27814 486.57648 315.91876Q486.81085 315.54376 486.9671 314.91876Q487.12335 314.27814 487.12335 313.6219Q487.12335 313.54376 487.12335 313.40314Q486.81085 313.90314 486.26398 314.23126Q485.7171 314.54376 485.07648 314.54376Q483.99835 314.54376 483.26398 313.77814Q482.5296 312.9969 482.5296 311.73126Q482.5296 310.41876 483.29523 309.6219Q484.07648 308.825 485.23273 308.825Q486.06085 308.825 486.74835 309.27814Q487.45148 309.73126 487.81085 310.575Q488.17023 311.40314 488.17023 312.98126Q488.17023 314.6219 487.81085 315.60626Q487.4671 316.575 486.74835 317.09064Q486.04523 317.59064 485.10773 317.59064Q484.0921 317.59064 483.45148 317.04376Q482.81085 316.48126 482.68585 315.46564ZM486.99835 311.66876Q486.99835 310.7625 486.51398 310.23126Q486.04523 309.7 485.35773 309.7Q484.6546 309.7 484.12335 310.27814Q483.60773 310.84064 483.60773 311.7625Q483.60773 312.575 484.10773 313.09064Q484.60773 313.60626 485.32648 313.60626Q486.06085 313.60626 486.5296 313.09064Q486.99835 312.575 486.99835 311.66876ZM489.0296 317.59064L491.51398 308.71564L492.35773 308.71564L489.87335 317.59064L489.0296 317.59064ZM498.07648 316.4344L498.07648 317.45L492.38898 317.45Q492.38898 317.075 492.51398 316.71564Q492.73273 316.1375 493.20148 315.575Q493.68585 315.0125 494.5921 314.27814Q495.99835 313.1219 496.48273 312.45Q496.98273 311.77814 496.98273 311.1844Q496.98273 310.5594 496.5296 310.1375Q496.07648 309.7 495.35773 309.7Q494.5921 309.7 494.13898 310.15314Q493.68585 310.60626 493.67023 311.41876L492.5921 311.3094Q492.70148 310.09064 493.42023 309.46564Q494.1546 308.825 495.38898 308.825Q496.62335 308.825 497.3421 309.5125Q498.06085 310.2 498.06085 311.21564Q498.06085 311.73126 497.8421 312.23126Q497.63898 312.71564 497.13898 313.27814Q496.6546 313.825 495.5296 314.77814Q494.57648 315.575 494.29523 315.8719Q494.0296 316.15314 493.85773 316.4344L498.07648 316.4344ZM499.5296 313.21564Q499.5296 311.6844 499.8421 310.7625Q500.1546 309.825 500.76398 309.325Q501.38898 308.825 502.32648 308.825Q503.01398 308.825 503.5296 309.10626Q504.06085 309.3875 504.4046 309.91876Q504.74835 310.4344 504.93585 311.1844Q505.12335 311.9344 505.12335 313.21564Q505.12335 314.73126 504.81085 315.65314Q504.51398 316.575 503.88898 317.09064Q503.2796 317.59064 502.32648 317.59064Q501.0921 317.59064 500.37335 316.7Q499.5296 315.6375 499.5296 313.21564ZM500.60773 313.21564Q500.60773 315.325 501.10773 316.02814Q501.60773 316.73126 502.32648 316.73126Q503.06085 316.73126 503.54523 316.02814Q504.04523 315.325 504.04523 313.21564Q504.04523 311.09064 503.54523 310.40314Q503.06085 309.7 502.31085 309.7Q501.5921 309.7 501.1546 310.3094Q500.60773 311.09064 500.60773 313.21564ZM512.0765 316.4344L512.0765 317.45L506.38898 317.45Q506.38898 317.075 506.51398 316.71564Q506.73273 316.1375 507.20148 315.575Q507.68585 315.0125 508.5921 314.27814Q509.99835 313.1219 510.48273 312.45Q510.98273 311.77814 510.98273 311.1844Q510.98273 310.5594 510.5296 310.1375Q510.07648 309.7 509.35773 309.7Q508.5921 309.7 508.13898 310.15314Q507.68585 310.60626 507.67023 311.41876L506.5921 311.3094Q506.70148 310.09064 507.42023 309.46564Q508.1546 308.825 509.38898 308.825Q510.62335 308.825 511.3421 309.5125Q512.06085 310.2 512.06085 311.21564Q512.06085 311.73126 511.8421 312.23126Q511.63898 312.71564 511.13898 313.27814Q510.6546 313.825 509.5296 314.77814Q508.57648 315.575 508.29523 315.8719Q508.0296 316.15314 507.85773 316.4344L512.0765 316.4344ZM519.0765 316.4344L519.0765 317.45L513.389 317.45Q513.389 317.075 513.514 316.71564Q513.7327 316.1375 514.2015 315.575Q514.68585 315.0125 515.5921 314.27814Q516.99835 313.1219 517.4827 312.45Q517.9827 311.77814 517.9827 311.1844Q517.9827 310.5594 517.5296 310.1375Q517.0765 309.7 516.3577 309.7Q515.5921 309.7 515.139 310.15314Q514.68585 310.60626 514.6702 311.41876L513.5921 311.3094Q513.7015 310.09064 514.4202 309.46564Q515.1546 308.825 516.389 308.825Q517.62335 308.825 518.3421 309.5125Q519.06085 310.2 519.06085 311.21564Q519.06085 311.73126 518.8421 312.23126Q518.639 312.71564 518.139 313.27814Q517.6546 313.825 516.5296 314.77814Q515.5765 315.575 515.2952 315.8719Q515.0296 316.15314 514.8577 316.4344L519.0765 316.4344Z" fill-rule="nonzero"/><path fill="#000000" d="M560.0656 313.21564Q560.0656 311.6844 560.3781 310.7625Q560.6906 309.825 561.3 309.325Q561.925 308.825 562.8625 308.825Q563.55 308.825 564.0656 309.10626Q564.59686 309.3875 564.9406 309.91876Q565.28436 310.4344 565.47186 311.1844Q565.65936 311.9344 565.65936 313.21564Q565.65936 314.73126 565.34686 315.65314Q565.05 316.575 564.425 317.09064Q563.8156 317.59064 562.8625 317.59064Q561.6281 317.59064 560.90936 316.7Q560.0656 315.6375 560.0656 313.21564ZM561.14374 313.21564Q561.14374 315.325 561.64374 316.02814Q562.14374 316.73126 562.8625 316.73126Q563.59686 316.73126 564.08124 316.02814Q564.58124 315.325 564.58124 313.21564Q564.58124 311.09064 564.08124 310.40314Q563.59686 309.7 562.84686 309.7Q562.1281 309.7 561.6906 310.3094Q561.14374 311.09064 561.14374 313.21564ZM571.03436 317.45L569.9875 317.45L569.9875 310.73126Q569.59686 311.09064 568.97186 311.46564Q568.3625 311.825 567.8781 311.9969L567.8781 310.98126Q568.7531 310.5594 569.40936 309.98126Q570.08124 309.3875 570.3625 308.825L571.03436 308.825L571.03436 317.45ZM573.5656 317.59064L576.05 308.71564L576.89374 308.71564L574.40936 317.59064L573.5656 317.59064ZM581.03436 317.45L579.9875 317.45L579.9875 310.73126Q579.59686 311.09064 578.97186 311.46564Q578.3625 311.825 577.8781 311.9969L577.8781 310.98126Q578.7531 310.5594 579.40936 309.98126Q580.08124 309.3875 580.3625 308.825L581.03436 308.825L581.03436 317.45ZM588.03436 317.45L586.9875 317.45L586.9875 310.73126Q586.59686 311.09064 585.97186 311.46564Q585.3625 311.825 584.8781 311.9969L584.8781 310.98126Q585.7531 310.5594 586.40936 309.98126Q587.08124 309.3875 587.3625 308.825L588.03436 308.825L588.03436 317.45ZM590.5656 317.59064L593.05 308.71564L593.89374 308.71564L591.40936 317.59064L590.5656 317.59064ZM599.6125 316.4344L599.6125 317.45L593.925 317.45Q593.925 317.075 594.05 316.71564Q594.26874 316.1375 594.7375 315.575Q595.22186 315.0125 596.1281 314.27814Q597.53436 313.1219 598.01874 312.45Q598.51874 311.77814 598.51874 311.1844Q598.51874 310.5594 598.0656 310.1375Q597.6125 309.7 596.89374 309.7Q596.1281 309.7 595.675 310.15314Q595.22186 310.60626 595.20624 311.41876L594.1281 311.3094Q594.2375 310.09064 594.95624 309.46564Q595.6906 308.825 596.925 308.825Q598.15936 308.825 598.8781 309.5125Q599.59686 310.2 599.59686 311.21564Q599.59686 311.73126 599.3781 312.23126Q599.175 312.71564 598.675 313.27814Q598.1906 313.825 597.0656 314.77814Q596.1125 315.575 595.83124 315.8719Q595.5656 316.15314 595.39374 316.4344L599.6125 316.4344ZM601.0656 313.21564Q601.0656 311.6844 601.3781 310.7625Q601.6906 309.825 602.3 309.325Q602.925 308.825 603.8625 308.825Q604.55 308.825 605.0656 309.10626Q605.59686 309.3875 605.9406 309.91876Q606.28436 310.4344 606.47186 311.1844Q606.65936 311.9344 606.65936 313.21564Q606.65936 314.73126 606.34686 315.65314Q606.05 316.575 605.425 317.09064Q604.8156 317.59064 603.8625 317.59064Q602.6281 317.59064 601.90936 316.7Q601.0656 315.6375 601.0656 313.21564ZM602.14374 313.21564Q602.14374 315.325 602.64374 316.02814Q603.14374 316.73126 603.8625 316.73126Q604.59686 316.73126 605.08124 316.02814Q605.58124 315.325 605.58124 313.21564Q605.58124 311.09064 605.08124 310.40314Q604.59686 309.7 603.84686 309.7Q603.1281 309.7 602.6906 310.3094Q602.14374 311.09064 602.14374 313.21564ZM613.6125 316.4344L613.6125 317.45L607.925 317.45Q607.925 317.075 608.05 316.71564Q608.26874 316.1375 608.7375 315.575Q609.22186 315.0125 610.1281 314.27814Q611.53436 313.1219 612.01874 312.45Q612.51874 311.77814 612.51874 311.1844Q612.51874 310.5594 612.0656 310.1375Q611.6125 309.7 610.89374 309.7Q610.1281 309.7 609.675 310.15314Q609.22186 310.60626 609.20624 311.41876L608.1281 311.3094Q608.2375 310.09064 608.95624 309.46564Q609.6906 308.825 610.925 308.825Q612.15936 308.825 612.8781 309.5125Q613.59686 310.2 613.59686 311.21564Q613.59686 311.73126 613.3781 312.23126Q613.175 312.71564 612.675 313.27814Q612.1906 313.825 611.0656 314.77814Q610.1125 315.575 609.83124 315.8719Q609.5656 316.15314 609.39374 316.4344L613.6125 316.4344ZM620.6125 316.4344L620.6125 317.45L614.925 317.45Q614.925 317.075 615.05 316.71564Q615.26874 316.1375 615.7375 315.575Q616.22186 315.0125 617.1281 314.27814Q618.53436 313.1219 619.01874 312.45Q619.51874 311.77814 619.51874 311.1844Q619.51874 310.5594 619.0656 310.1375Q618.6125 309.7 617.89374 309.7Q617.1281 309.7 616.675 310.15314Q616.22186 310.60626 616.20624 311.41876L615.1281 311.3094Q615.2375 310.09064 615.95624 309.46564Q616.6906 308.825 617.925 308.825Q619.15936 308.825 619.8781 309.5125Q620.59686 310.2 620.59686 311.21564Q620.59686 311.73126 620.3781 312.23126Q620.175 312.71564 619.675 313.27814Q619.1906 313.825 618.0656 314.77814Q617.1125 315.575 616.83124 315.8719Q616.5656 316.15314 616.39374 316.4344L620.6125 316.4344Z" fill-rule="nonzero"/></svg>